<?xml version="1.0" encoding="UTF-8" standalone="no"?>
<!DOCTYPE svg PUBLIC "-//W3C//DTD SVG 1.1//EN" "http://www.w3.org/Graphics/SVG/1.1/DTD/svg11.dtd">
<svg width="100%" height="100%" viewBox="0 0 3080 424" version="1.1" xmlns="http://www.w3.org/2000/svg" xmlns:xlink="http://www.w3.org/1999/xlink" xml:space="preserve" xmlns:serif="http://www.serif.com/" style="fill-rule:evenodd;clip-rule:evenodd;stroke-linejoin:round;stroke-miterlimit:2;">
    <g transform="matrix(1,0,0,1,-2225.08,-2143.87)">
        <g transform="matrix(4.16667,0,0,4.16667,0,0)">
            <g transform="matrix(1,0,0,1,1268.15,606.241)">
                <path d="M0,10.04L-50.278,10.04C-53.051,10.04 -55.298,7.792 -55.298,5.02C-55.298,2.247 -53.051,0 -50.278,0L0,0C2.772,0 5.02,2.247 5.02,5.02C5.02,7.792 2.772,10.04 0,10.04" style="fill:rgb(146,208,80);fill-rule:nonzero;"/>
            </g>
        </g>
        <g transform="matrix(4.16667,0,0,4.16667,0,0)">
            <g transform="matrix(-1,0,0,1,1165.4,46.423)">
                <rect x="534.019" y="468.106" width="97.365" height="97.365" style="fill:rgb(0,112,192);"/>
            </g>
        </g>
        <g transform="matrix(4.16667,0,0,4.16667,0,0)">
            <g transform="matrix(1,0,0,1,607.84,537.104)">
                <path d="M0,10.04L-50.278,10.04C-53.051,10.04 -55.298,7.792 -55.298,5.02C-55.298,2.247 -53.051,0 -50.278,0L0,0C2.772,0 5.02,2.247 5.02,5.02C5.02,7.792 2.772,10.04 0,10.04" style="fill:white;fill-rule:nonzero;"/>
            </g>
        </g>
        <g transform="matrix(4.16667,0,0,4.16667,0,0)">
            <g transform="matrix(0,-1,-1,0,582.701,518.456)">
                <path d="M-7.628,-7.628C-11.454,-7.628 -14.555,-4.213 -14.555,-0.001C-14.555,4.212 -11.454,7.628 -7.628,7.628C-3.802,7.628 -0.701,4.212 -0.701,-0.001C-0.701,-4.213 -3.802,-7.628 -7.628,-7.628" style="fill:white;fill-rule:nonzero;"/>
            </g>
        </g>
        <g transform="matrix(4.16667,0,0,4.16667,0,0)">
            <path d="M686.487,565.258L653.872,547.182C652.235,546.266 651.146,545.447 650.606,544.727C650.066,544.006 649.795,543.089 649.795,541.976C649.795,540.568 650.303,539.356 651.318,538.341C652.333,537.326 653.528,536.818 654.904,536.818C655.755,536.818 657.065,537.293 658.833,538.243L707.411,565.258L658.833,592.273C657.065,593.256 655.755,593.747 654.904,593.747C653.528,593.747 652.333,593.239 651.318,592.224C650.303,591.209 649.795,589.981 649.795,588.54C649.795,587.427 650.066,586.51 650.606,585.79C651.146,585.069 652.235,584.251 653.872,583.334L686.487,565.258Z" style="fill:rgb(146,208,80);fill-rule:nonzero;"/>
        </g>
        <g transform="matrix(4.16667,0,0,4.16667,0,0)">
            <path d="M725.821,530.237L725.821,551.701C727.917,550.457 730.037,549.532 732.182,548.926C734.327,548.32 736.496,548.018 738.69,548.018C742.161,548.018 745.256,548.607 747.974,549.786C750.692,550.965 752.943,552.823 754.727,555.361C756.512,557.899 757.404,561.099 757.404,564.963L757.404,583.874C759.959,583.874 761.629,584.12 762.414,584.611C763.986,585.626 764.772,587.067 764.772,588.933C764.772,590.407 764.265,591.61 763.25,592.544C762.234,593.477 760.515,593.943 758.092,593.943L746.598,593.943C744.208,593.943 742.497,593.477 741.465,592.544C740.434,591.61 739.918,590.39 739.918,588.884C739.918,587.05 740.704,585.626 742.276,584.611C743.095,584.087 744.765,583.841 747.286,583.874L747.286,565.651C747.286,563.064 746.697,561.247 745.518,560.199C743.979,558.791 741.703,558.087 738.69,558.087C736.464,558.087 734.491,558.521 732.771,559.388C731.052,560.256 728.736,562.131 725.821,565.013L725.821,583.874C728.408,583.874 730.078,584.12 730.831,584.611C732.436,585.626 733.238,587.067 733.238,588.933C733.238,590.407 732.722,591.61 731.691,592.544C730.659,593.477 728.932,593.943 726.509,593.943L715.064,593.943C712.641,593.943 710.914,593.477 709.882,592.544C708.851,591.61 708.335,590.39 708.335,588.884C708.335,587.05 709.137,585.626 710.742,584.611C711.528,584.087 713.198,583.841 715.752,583.874L715.752,540.306L714.033,540.306C711.609,540.306 709.882,539.839 708.851,538.906C707.819,537.973 707.303,536.753 707.303,535.247C707.303,533.773 707.819,532.57 708.851,531.636C709.882,530.703 711.609,530.237 714.033,530.237L725.821,530.237Z" style="fill:rgb(0,112,192);fill-rule:nonzero;"/>
        </g>
        <g transform="matrix(4.16667,0,0,4.16667,0,0)">
            <path d="M821.838,576.752L780.529,576.752C781.577,579.372 783.436,581.484 786.104,583.088C788.773,584.693 792.383,585.495 796.935,585.495C800.668,585.495 805.629,584.693 811.818,583.088C814.372,582.433 816.14,582.106 817.123,582.106C818.465,582.106 819.595,582.581 820.512,583.53C821.429,584.48 821.887,585.675 821.887,587.116C821.887,588.426 821.396,589.539 820.414,590.456C819.104,591.668 815.911,592.822 810.836,593.919C805.76,595.016 800.881,595.564 796.198,595.564C788.143,595.564 781.7,593.288 776.87,588.737C772.04,584.185 769.625,578.586 769.625,571.938C769.625,564.865 772.237,559.11 777.46,554.673C782.682,550.236 788.699,548.018 795.511,548.018C799.604,548.018 803.361,548.738 806.783,550.179C810.205,551.62 812.751,553.175 814.421,554.845C816.779,557.268 818.727,560.264 820.266,563.834C821.314,566.322 821.838,569.204 821.838,572.479L821.838,576.752ZM810.688,566.683C809.149,563.801 807.135,561.648 804.647,560.223C802.158,558.799 799.195,558.087 795.756,558.087C792.351,558.087 789.404,558.799 786.915,560.223C784.426,561.648 782.396,563.801 780.824,566.683L810.688,566.683Z" style="fill:rgb(0,112,192);fill-rule:nonzero;"/>
        </g>
        <g transform="matrix(4.16667,0,0,4.16667,0,0)">
            <path d="M863.974,593.943L863.974,591.586C861.453,592.928 858.669,593.935 855.624,594.607C852.579,595.278 849.812,595.613 847.323,595.613C841.92,595.613 837.532,594.181 834.159,591.316C830.786,588.45 829.1,585.282 829.1,581.811C829.1,577.587 831.253,573.666 835.559,570.047C839.865,566.429 845.817,564.62 853.414,564.62C856.459,564.62 859.979,564.947 863.974,565.602L863.974,563.195C863.974,561.689 863.327,560.461 862.034,559.511C860.74,558.562 858.276,558.087 854.642,558.087C851.662,558.087 847.798,558.676 843.05,559.855C841.281,560.281 839.906,560.494 838.924,560.494C837.581,560.494 836.443,560.011 835.51,559.045C834.577,558.079 834.11,556.842 834.11,555.336C834.11,554.485 834.274,553.748 834.601,553.126C834.929,552.504 835.387,552.004 835.976,551.628C836.566,551.251 837.794,550.801 839.66,550.277C842.149,549.589 844.687,549.041 847.274,548.631C849.861,548.222 852.202,548.018 854.298,548.018C860.552,548.018 865.407,549.368 868.861,552.07C872.316,554.771 874.043,558.463 874.043,563.146L874.043,583.874L875.763,583.874C878.186,583.874 879.913,584.341 880.945,585.274C881.976,586.207 882.492,587.427 882.492,588.933C882.492,590.407 881.976,591.61 880.945,592.544C879.913,593.477 878.186,593.943 875.763,593.943L863.974,593.943ZM863.974,575.917C859.946,575.131 856.23,574.738 852.824,574.738C848.731,574.738 845.211,575.737 842.264,577.734C840.43,579.011 839.513,580.305 839.513,581.615C839.513,582.564 839.955,583.334 840.839,583.923C842.477,585.004 844.72,585.544 847.568,585.544C849.992,585.544 852.734,585.069 855.796,584.12C858.858,583.17 861.584,581.877 863.974,580.239L863.974,575.917Z" style="fill:rgb(0,112,192);fill-rule:nonzero;"/>
        </g>
        <g transform="matrix(4.16667,0,0,4.16667,0,0)">
            <path d="M918.291,530.237L918.291,583.874L930.375,583.874C932.798,583.874 934.525,584.341 935.557,585.274C936.588,586.207 937.104,587.427 937.104,588.933C937.104,590.407 936.588,591.61 935.557,592.544C934.525,593.477 932.798,593.943 930.375,593.943L896.139,593.943C893.716,593.943 891.988,593.477 890.957,592.544C889.925,591.61 889.41,590.39 889.41,588.884C889.41,587.411 889.925,586.207 890.957,585.274C891.988,584.341 893.716,583.874 896.139,583.874L908.222,583.874L908.222,540.306L900.118,540.306C897.727,540.306 896.008,539.839 894.96,538.906C893.912,537.973 893.388,536.753 893.388,535.247C893.388,533.773 893.904,532.57 894.936,531.636C895.967,530.703 897.694,530.237 900.118,530.237L918.291,530.237Z" style="fill:rgb(0,112,192);fill-rule:nonzero;"/>
        </g>
        <g transform="matrix(4.16667,0,0,4.16667,0,0)">
            <path d="M960.349,559.413L960.349,579.601C960.349,581.762 960.791,583.186 961.676,583.874C963.051,584.955 965.507,585.495 969.043,585.495C974.184,585.495 978.933,584.398 983.288,582.204C984.958,581.353 986.268,580.927 987.217,580.927C988.527,580.927 989.665,581.418 990.631,582.401C991.597,583.383 992.08,584.578 992.08,585.986C992.08,587.296 991.556,588.426 990.508,589.375C988.904,590.914 985.736,592.331 981.004,593.624C976.272,594.918 972.285,595.564 969.043,595.564C962.789,595.564 958.098,594.214 954.971,591.512C951.844,588.811 950.28,585.495 950.28,581.566L950.28,559.413L946.645,559.413C944.222,559.413 942.495,558.946 941.463,558.013C940.432,557.08 939.916,555.86 939.916,554.354C939.916,552.88 940.432,551.677 941.463,550.744C942.495,549.81 944.222,549.344 946.645,549.344L950.28,549.344L950.28,540.257C950.28,537.834 950.747,536.106 951.68,535.075C952.613,534.043 953.833,533.528 955.339,533.528C956.813,533.528 958.016,534.043 958.95,535.075C959.883,536.106 960.349,537.834 960.349,540.257L960.349,549.344L978.965,549.344C981.389,549.344 983.116,549.81 984.147,550.744C985.179,551.677 985.695,552.897 985.695,554.403C985.695,555.876 985.179,557.08 984.147,558.013C983.116,558.946 981.389,559.413 978.965,559.413L960.349,559.413Z" style="fill:rgb(0,112,192);fill-rule:nonzero;"/>
        </g>
        <g transform="matrix(4.16667,0,0,4.16667,0,0)">
            <path d="M1013.79,530.237L1013.79,551.701C1015.89,550.457 1018.01,549.532 1020.15,548.926C1022.3,548.32 1024.47,548.018 1026.66,548.018C1030.13,548.018 1033.23,548.607 1035.95,549.786C1038.66,550.965 1040.92,552.823 1042.7,555.361C1044.49,557.899 1045.38,561.099 1045.38,564.963L1045.38,583.874C1047.93,583.874 1049.6,584.12 1050.39,584.611C1051.96,585.626 1052.75,587.067 1052.75,588.933C1052.75,590.407 1052.24,591.61 1051.22,592.544C1050.21,593.477 1048.49,593.943 1046.07,593.943L1034.57,593.943C1032.18,593.943 1030.47,593.477 1029.44,592.544C1028.41,591.61 1027.89,590.39 1027.89,588.884C1027.89,587.05 1028.68,585.626 1030.25,584.611C1031.07,584.087 1032.74,583.841 1035.26,583.874L1035.26,565.651C1035.26,563.064 1034.67,561.247 1033.49,560.199C1031.95,558.791 1029.68,558.087 1026.66,558.087C1024.44,558.087 1022.46,558.521 1020.74,559.388C1019.02,560.256 1016.71,562.131 1013.79,565.013L1013.79,583.874C1016.38,583.874 1018.05,584.12 1018.8,584.611C1020.41,585.626 1021.21,587.067 1021.21,588.933C1021.21,590.407 1020.7,591.61 1019.66,592.544C1018.63,593.477 1016.9,593.943 1014.48,593.943L1003.04,593.943C1000.61,593.943 998.887,593.477 997.855,592.544C996.824,591.61 996.308,590.39 996.308,588.884C996.308,587.05 997.11,585.626 998.715,584.611C999.501,584.087 1001.17,583.841 1003.73,583.874L1003.73,540.306L1002.01,540.306C999.583,540.306 997.855,539.839 996.824,538.906C995.792,537.973 995.276,536.753 995.276,535.247C995.276,533.773 995.792,532.57 996.824,531.636C997.855,530.703 999.583,530.237 1002.01,530.237L1013.79,530.237Z" style="fill:rgb(0,112,192);fill-rule:nonzero;"/>
        </g>
        <g transform="matrix(4.16667,0,0,4.16667,0,0)">
            <path d="M1083.3,588.884C1083.3,590.783 1082.63,592.372 1081.29,593.649C1079.95,594.926 1078.1,595.564 1075.74,595.564C1073.38,595.564 1071.53,594.926 1070.19,593.649C1068.85,592.372 1068.17,590.783 1068.17,588.884C1068.17,586.985 1068.85,585.397 1070.19,584.12C1071.53,582.843 1073.38,582.204 1075.74,582.204C1078.1,582.204 1079.95,582.843 1081.29,584.12C1082.63,585.397 1083.3,586.985 1083.3,588.884Z" style="fill:rgb(146,208,80);fill-rule:nonzero;"/>
        </g>
        <g transform="matrix(4.16667,0,0,4.16667,0,0)">
            <path d="M1148.67,576.752L1107.36,576.752C1108.41,579.372 1110.27,581.484 1112.94,583.088C1115.61,584.693 1119.22,585.495 1123.77,585.495C1127.5,585.495 1132.46,584.693 1138.65,583.088C1141.2,582.433 1142.97,582.106 1143.96,582.106C1145.3,582.106 1146.43,582.581 1147.35,583.53C1148.26,584.48 1148.72,585.675 1148.72,587.116C1148.72,588.426 1148.23,589.539 1147.25,590.456C1145.94,591.668 1142.74,592.822 1137.67,593.919C1132.59,595.016 1127.71,595.564 1123.03,595.564C1114.98,595.564 1108.53,593.288 1103.7,588.737C1098.87,584.185 1096.46,578.586 1096.46,571.938C1096.46,564.865 1099.07,559.11 1104.29,554.673C1109.52,550.236 1115.53,548.018 1122.34,548.018C1126.44,548.018 1130.19,548.738 1133.62,550.179C1137.04,551.62 1139.58,553.175 1141.25,554.845C1143.61,557.268 1145.56,560.264 1147.1,563.834C1148.15,566.322 1148.67,569.204 1148.67,572.479L1148.67,576.752ZM1137.52,566.683C1135.98,563.801 1133.97,561.648 1131.48,560.223C1128.99,558.799 1126.03,558.087 1122.59,558.087C1119.18,558.087 1116.24,558.799 1113.75,560.223C1111.26,561.648 1109.23,563.801 1107.66,566.683L1137.52,566.683Z" style="fill:rgb(0,112,192);fill-rule:nonzero;"/>
        </g>
        <g transform="matrix(4.16667,0,0,4.16667,0,0)">
            <path d="M1190.29,570.759L1205.57,583.874C1207.4,583.972 1208.78,584.488 1209.69,585.421C1210.61,586.355 1211.07,587.525 1211.07,588.933C1211.07,590.407 1210.55,591.61 1209.52,592.544C1208.49,593.477 1206.76,593.943 1204.34,593.943L1192.89,593.943C1190.47,593.943 1188.74,593.477 1187.71,592.544C1186.68,591.61 1186.16,590.374 1186.16,588.835C1186.16,587.656 1186.53,586.617 1187.27,585.716C1188.01,584.816 1189.01,584.202 1190.29,583.874L1182.78,577.39L1175.11,583.874C1176.65,584.267 1177.76,584.873 1178.43,585.691C1179.1,586.51 1179.43,587.558 1179.43,588.835C1179.43,590.374 1178.93,591.61 1177.91,592.544C1176.9,593.477 1175.18,593.943 1172.76,593.943L1161.41,593.943C1158.99,593.943 1157.26,593.477 1156.23,592.544C1155.19,591.61 1154.68,590.39 1154.68,588.884C1154.68,587.509 1155.14,586.355 1156.06,585.421C1156.97,584.488 1158.35,583.972 1160.18,583.874L1175.11,570.71L1161.9,559.413C1160.16,559.282 1158.85,558.75 1157.95,557.817C1157.05,556.883 1156.6,555.729 1156.6,554.354C1156.6,552.88 1157.11,551.677 1158.14,550.744C1159.17,549.81 1160.9,549.344 1163.32,549.344L1172.76,549.344C1175.18,549.344 1176.9,549.81 1177.94,550.744C1178.97,551.677 1179.48,552.864 1179.48,554.305C1179.48,556.237 1178.57,557.808 1176.73,559.02L1182.82,564.079L1188.82,558.922C1187.02,557.645 1186.12,556.171 1186.12,554.501C1186.12,552.929 1186.63,551.677 1187.66,550.744C1188.69,549.81 1190.42,549.344 1192.84,549.344L1202.18,549.344C1204.6,549.344 1206.33,549.81 1207.36,550.744C1208.39,551.677 1208.91,552.897 1208.91,554.403C1208.91,555.745 1208.46,556.883 1207.56,557.817C1206.65,558.75 1205.32,559.282 1203.55,559.413L1190.29,570.759Z" style="fill:rgb(0,112,192);fill-rule:nonzero;"/>
        </g>
        <g transform="matrix(4.16667,0,0,4.16667,0,0)">
            <path d="M1268.38,576.752L1227.07,576.752C1228.12,579.372 1229.98,581.484 1232.64,583.088C1235.31,584.693 1238.92,585.495 1243.48,585.495C1247.21,585.495 1252.17,584.693 1258.36,583.088C1260.91,582.433 1262.68,582.106 1263.66,582.106C1265.01,582.106 1266.14,582.581 1267.05,583.53C1267.97,584.48 1268.43,585.675 1268.43,587.116C1268.43,588.426 1267.94,589.539 1266.95,590.456C1265.64,591.668 1262.45,592.822 1257.38,593.919C1252.3,595.016 1247.42,595.564 1242.74,595.564C1234.68,595.564 1228.24,593.288 1223.41,588.737C1218.58,584.185 1216.17,578.586 1216.17,571.938C1216.17,564.865 1218.78,559.11 1224,554.673C1229.22,550.236 1235.24,548.018 1242.05,548.018C1246.14,548.018 1249.9,548.738 1253.32,550.179C1256.75,551.62 1259.29,553.175 1260.96,554.845C1263.32,557.268 1265.27,560.264 1266.81,563.834C1267.86,566.322 1268.38,569.204 1268.38,572.479L1268.38,576.752ZM1257.23,566.683C1255.69,563.801 1253.68,561.648 1251.19,560.223C1248.7,558.799 1245.74,558.087 1242.3,558.087C1238.89,558.087 1235.94,558.799 1233.46,560.223C1230.97,561.648 1228.94,563.801 1227.37,566.683L1257.23,566.683Z" style="fill:rgb(0,112,192);fill-rule:nonzero;"/>
        </g>
        <g transform="matrix(4.16667,0,0,4.16667,0,0)">
            <g transform="matrix(0.000290276,-1,1,0.000290276,0,0)">
                <path d="M-570.796,582.84L-603.41,564.765C-605.047,563.848 -606.136,563.029 -606.676,562.309C-607.217,561.588 -607.487,560.671 -607.487,559.558C-607.487,558.15 -606.979,556.938 -605.964,555.923C-604.949,554.908 -603.754,554.401 -602.379,554.401C-601.527,554.401 -600.217,554.875 -598.449,555.825L-549.871,582.84L-598.449,609.855C-600.217,610.837 -601.527,611.328 -602.379,611.328C-603.754,611.328 -604.949,610.821 -605.964,609.806C-606.979,608.791 -607.487,607.563 -607.487,606.122C-607.487,605.009 -607.217,604.092 -606.676,603.371C-606.136,602.651 -605.047,601.832 -603.41,600.915L-570.796,582.84Z" style="fill:white;fill-rule:nonzero;"/>
            </g>
        </g>
    </g>
</svg>
