<?xml version="1.0" encoding="UTF-8"?>
<svg version="1.1" xmlns="http://www.w3.org/2000/svg" width="1466" height="351">
<path d="M0 0 C7.11512681 5.42641001 10.94383018 11.31023467 13 20 C13.10699219 21.155 13.21398438 22.31 13.32421875 23.5 C14.12987605 27.67265285 15.45681078 29.26881172 18.3125 32.375 C22.72908058 37.35345326 26.67714923 42.55274299 30.5 48 C31.01602783 48.73009277 31.53205566 49.46018555 32.0637207 50.21240234 C34.29203544 53.40121675 36.3190789 56.4828764 38 60 C38.66 60 39.32 60 40 60 C41.45796729 61.92984052 42.8000478 63.85650501 44.125 65.875 C47.5712098 70.99340953 51.18431558 75.87333678 55.08984375 80.65625 C57.586388 83.71949448 59.99386689 86.84780295 62.40234375 89.98046875 C63.79488094 91.74071747 65.24685908 93.39782752 66.75 95.0625 C72.82371361 102.99207055 72.9211867 111.29683342 72 121 C70.48361422 127.29381624 68.06393475 131.85678066 63 136 C62.06607422 136.77150391 62.06607422 136.77150391 61.11328125 137.55859375 C55.93449318 141.67203113 51.77796392 144 45 144 C44.77441406 144.81726563 44.54882812 145.63453125 44.31640625 146.4765625 C42.69081438 150.82755319 40.41626187 154.46483447 37.9375 158.375 C34.20351193 164.36156699 30.59872374 170.38615674 27.1875 176.5625 C24.52699135 181.3677221 21.73464054 185.98843595 18.61328125 190.5078125 C16.32233171 194.04685804 14.25653194 197.7028756 12.1875 201.375 C11.59098633 202.42977539 11.59098633 202.42977539 10.98242188 203.50585938 C8.6218826 207.73192015 6.93837051 211.17096038 6.68359375 216.01171875 C6.64169922 216.76904297 6.59980469 217.52636719 6.55664062 218.30664062 C6.51732422 219.09232422 6.47800781 219.87800781 6.4375 220.6875 C6.37272461 221.88342773 6.37272461 221.88342773 6.30664062 223.10351562 C6.20072632 225.06881447 6.09987449 227.03438496 6 229 C7.36125 229.3403125 7.36125 229.3403125 8.75 229.6875 C12.58671255 231.23694161 13.76400014 232.5575793 16 236 C16.45410156 238.9543457 16.45410156 238.9543457 16.390625 242.17578125 C16.37773438 243.33271484 16.36484375 244.48964844 16.3515625 245.68164062 C16.31804687 246.87982422 16.28453125 248.07800781 16.25 249.3125 C16.23195313 250.53001953 16.21390625 251.74753906 16.1953125 253.00195312 C16.14825131 256.00210422 16.0825131 259.00064889 16 262 C16.60473145 261.97905273 17.20946289 261.95810547 17.83251953 261.93652344 C20.59650771 261.85291055 23.36022913 261.80119946 26.125 261.75 C27.07632812 261.71648437 28.02765625 261.68296875 29.0078125 261.6484375 C34.84778913 261.56732671 38.49620977 261.87503324 43 266 C46.33520295 270.31153052 46.4532206 274.33102752 46.43359375 279.58984375 C46.4388356 280.41198868 46.44407745 281.23413361 46.44947815 282.08119202 C46.45588401 283.81510288 46.45457996 285.54905729 46.44604492 287.28295898 C46.43753779 289.92576034 46.46630925 292.56639646 46.49804688 295.20898438 C46.49965924 296.89843686 46.49908067 298.58789314 46.49609375 300.27734375 C46.50732773 301.06189438 46.51856171 301.84644501 46.53013611 302.6547699 C46.46437584 307.87157434 45.52532895 310.91710699 42 315 C38.4917081 317.48282161 36.09108014 318.37640762 31.80751038 318.39440918 C30.78278122 318.40575897 29.75805206 318.41710876 28.70227051 318.42880249 C27.58888306 318.42587189 26.47549561 318.42294128 25.32836914 318.41992188 C24.14734116 318.42839142 22.96631317 318.43686096 21.74949646 318.44558716 C18.51798537 318.46495479 15.28682911 318.47073587 12.05527043 318.46883965 C9.35401037 318.46871977 6.65280407 318.47729063 3.95155901 318.48561716 C-2.42287425 318.50483702 -8.79717657 318.50774014 -15.17163086 318.50097656 C-21.74005543 318.49433527 -28.30791852 318.51720617 -34.87622923 318.55429029 C-40.52311906 318.58501118 -46.16982848 318.59634482 -51.81680018 318.59245348 C-55.18622008 318.59038853 -58.55520288 318.59582487 -61.92454338 318.62034607 C-65.68314111 318.64246457 -69.44038177 318.63286781 -73.19897461 318.61523438 C-74.31033783 318.62849762 -75.42170105 318.64176086 -76.56674194 318.65542603 C-84.97875983 318.5636653 -84.97875983 318.5636653 -88.65307617 315.57304382 C-93.09673593 310.70124903 -93.32693441 307.03671354 -93.37109375 300.54296875 C-93.38012222 299.72178055 -93.3891507 298.90059235 -93.39845276 298.05451965 C-93.41294023 296.31885412 -93.42183827 294.58313416 -93.42553711 292.84741211 C-93.43741423 290.20657053 -93.4865941 287.56808175 -93.53710938 284.92773438 C-93.54657681 283.23699051 -93.55381031 281.54623236 -93.55859375 279.85546875 C-93.57812607 279.07294235 -93.59765839 278.29041595 -93.61778259 277.48417664 C-93.57099632 271.73109274 -92.02376104 268.14509429 -88 264 C-84.97276749 261.82887182 -82.47210613 261.76195225 -78.796875 261.8046875 C-77.8171875 261.81113281 -76.8375 261.81757813 -75.828125 261.82421875 C-74.81234375 261.84097656 -73.7965625 261.85773438 -72.75 261.875 C-71.71875 261.88402344 -70.6875 261.89304687 -69.625 261.90234375 C-67.08309713 261.92587989 -64.5416672 261.95875977 -62 262 C-62.01571045 261.26885986 -62.0314209 260.53771973 -62.04760742 259.78442383 C-62.11010351 256.4605284 -62.14903752 253.1367568 -62.1875 249.8125 C-62.21263672 248.66201172 -62.23777344 247.51152344 -62.26367188 246.32617188 C-62.27333984 245.21435547 -62.28300781 244.10253906 -62.29296875 242.95703125 C-62.3086792 241.93585205 -62.32438965 240.91467285 -62.34057617 239.86254883 C-61.93505263 236.45411621 -61.09858287 234.70796862 -59 232 C-58.12335693 231.56236328 -57.24671387 231.12472656 -56.34350586 230.67382812 C-55.57014893 230.12146484 -54.79679199 229.56910156 -54 229 C-53.54606632 226.20764987 -53.4179625 224.00409576 -53.50390625 221.21875 C-53.50207354 219.63802069 -53.50011626 218.05729152 -53.49804688 216.4765625 C-53.52512043 213.99945462 -53.56210346 211.5227771 -53.60522461 209.04589844 C-53.75008388 198.52721214 -53.41830588 190.84990619 -47 182 C-46.62141846 181.4033252 -46.24283691 180.80665039 -45.8527832 180.19189453 C-42.47644988 175.39461597 -37.32185095 173.06913565 -32 171 C-30.845 170.835 -29.69 170.67 -28.5 170.5 C-27.675 170.335 -26.85 170.17 -26 170 C-25.29461693 168.34934651 -24.63395471 166.67938192 -24 165 C-23.02320601 163.51180972 -21.99833716 162.05449688 -20.9375 160.625 C-17.88340957 156.37086157 -15.15429691 152.00756292 -12.5 147.5 C-9.41705014 142.27383342 -6.16493894 137.26890797 -2.625 132.3359375 C0.14187622 128.35855294 2.56655108 124.1866542 5 120 C5.41636719 119.30261719 5.83273437 118.60523437 6.26171875 117.88671875 C8.32210462 114.66328238 8.32210462 114.66328238 9 111 C7.515 110.505 7.515 110.505 6 110 C4.35260767 107.44267617 2.84730453 104.90526922 1.375 102.25 C-2.39129091 95.64604537 -6.37766525 89.39674551 -10.7734375 83.19140625 C-13.56661571 79.18785081 -16.19722158 75.09338546 -18.81640625 70.97485352 C-21.46357138 66.81510671 -24.19390901 62.72314473 -27.00390625 58.671875 C-28 57 -28 57 -28 55 C-30.16403869 54.07905161 -30.16403869 54.07905161 -33 54 C-35.48031429 55.39281424 -37.56789352 56.73840546 -39.8125 58.4375 C-40.40998047 58.87126953 -41.00746094 59.30503906 -41.62304688 59.75195312 C-43.09186679 60.82125402 -44.54730974 61.90888711 -46 63 C-45.6596875 64.3303125 -45.6596875 64.3303125 -45.3125 65.6875 C-44.93135307 69.72765742 -45.54397744 70.83142769 -48 74 C-49.73231208 75.78862563 -51.52923693 77.51619946 -53.375 79.1875 C-54.31085938 80.04730469 -55.24671875 80.90710938 -56.2109375 81.79296875 C-60.97470143 85.56261388 -64.92513661 86.66271237 -71 86 C-73.4375 84.375 -73.4375 84.375 -75 82 C-75.58452634 78.49284198 -75.56656665 76.80263608 -73.5 73.875 C-70.21786493 71.4133987 -66.72301106 69.69884971 -63 68 C-64.27544884 63.79101884 -66.41385971 61.23634848 -69.27734375 58.03515625 C-73.25306226 53.33821896 -76.59011447 48.11482829 -80 43 C-82.97931181 44.34003981 -85.04045138 45.85621331 -87.375 48.125 C-89.89309235 50.33035283 -90.78560942 50.96216637 -94.1875 51.5625 C-97.40356481 50.91928704 -98.87988363 50.52783106 -101 48 C-101.75603475 43.6317992 -101.22785562 41.43999706 -99.1875 37.5 C-94.99727351 32.16259335 -88.38636977 28.12878992 -82 26 C-78.625 25.625 -78.625 25.625 -75 26 C-72.0625 28.5 -72.0625 28.5 -70 31 C-64.61157024 29.02837937 -60.57372481 25.98131925 -56.0625 22.5 C-55.2492627 21.87287109 -54.43602539 21.24574219 -53.59814453 20.59960938 C-48.56128454 16.58488442 -45.07575154 12.95252563 -42.203125 7.12109375 C-40.0331026 3.29537244 -36.74128687 1.16751419 -33 -1 C-32.41863281 -1.33902344 -31.83726563 -1.67804688 -31.23828125 -2.02734375 C-21.86402561 -6.43995432 -8.68333077 -5.50142531 0 0 Z M-28 13 C-33.04011415 18.16304377 -33.35286238 22.00078305 -33.27734375 29.015625 C-32.77562559 34.41439506 -30.24582434 36.87282559 -26.375 40.375 C-21.80814422 42.57385649 -17.98423135 42.68574995 -13 42 C-8.83493046 40.24141508 -6.01014102 37.34460113 -3 34 C-1.19274549 28.57823646 -1.35287842 23.05556266 -3.0625 17.625 C-5.59344321 14.19598017 -8.1797506 12.74545878 -12 11 C-12.928125 10.505 -13.85625 10.01 -14.8125 9.5 C-19.80766056 8.7164454 -23.66976377 10.5563504 -28 13 Z M-51.5625 36.375 C-52.20316406 36.81585938 -52.84382813 37.25671875 -53.50390625 37.7109375 C-54.24447266 38.34902344 -54.24447266 38.34902344 -55 39 C-55 39.66 -55 40.32 -55 41 C-56.98 41.99 -56.98 41.99 -59 43 C-59 47.68091299 -58.00354129 48.62101604 -55 52 C-54.37351562 51.50628906 -53.74703125 51.01257813 -53.1015625 50.50390625 C-52.28429688 49.86324219 -51.46703125 49.22257812 -50.625 48.5625 C-49.40683594 47.60537109 -49.40683594 47.60537109 -48.1640625 46.62890625 C-46 45 -46 45 -44 44 C-44.60990891 40.44219804 -45.5783681 37.3171411 -47 34 C-48.80617316 34 -50.12628574 35.37110074 -51.5625 36.375 Z M7 43 C6.15204049 44.0508641 5.32219744 45.11635945 4.5 46.1875 C1.46098525 49.82254428 -1.75150257 51.83279836 -5.94921875 53.95703125 C-8.2165771 55.05970342 -8.2165771 55.05970342 -11 57 C-10.53851562 57.6084375 -10.07703125 58.216875 -9.6015625 58.84375 C-4.9500906 65.0947399 -0.74757851 71.50512219 3.33935547 78.13330078 C9.00328344 87.5751472 9.00328344 87.5751472 16 96 C16.495 95.278125 16.99 94.55625 17.5 93.8125 C23.12025193 87.48971657 29.9450258 85.03024964 38 83 C37.21625 81.96875 36.4325 80.9375 35.625 79.875 C32.70215268 75.98478004 29.87774716 72.03062249 27.0625 68.0625 C23.69774047 63.32828147 20.2731419 58.66508073 16.66796875 54.109375 C15.44892503 52.56772721 14.24527758 51.0138697 13.05078125 49.453125 C12.41527344 48.62296875 11.77976562 47.7928125 11.125 46.9375 C10.55007813 46.18339844 9.97515625 45.42929687 9.3828125 44.65234375 C8.92648437 44.10707031 8.47015625 43.56179687 8 43 C7.67 43 7.34 43 7 43 Z M29 102 C25.16537926 107.07159518 25.20214826 112.8920017 26 119 C27.25597247 122.73415469 29.17626483 125.29394128 32.1875 127.875 C37.59455257 130.03782103 42.14112061 130.55766382 47.75 128.875 C52.48616568 126.14259672 55.25658216 123.79096117 57.375 118.6875 C58.23731826 113.59982227 58.54312579 109.42152047 55.73046875 105.0078125 C52.47693108 101.03767286 49.69848386 98.35538991 44.44921875 97.6640625 C38.04967642 97.57354564 34.08352233 97.97554482 29 102 Z M15 132 C13.41688583 134.13937864 13.41688583 134.13937864 11.8125 136.875 C9.48097462 140.65467779 7.09554803 144.33419969 4.5 147.9375 C-2.53286968 156.82887208 -2.53286968 156.82887208 -6 167 C-6.66 167 -7.32 167 -8 167 C-8.99 169.475 -8.99 169.475 -10 172 C-9.32453125 172.43570313 -8.6490625 172.87140625 -7.953125 173.3203125 C-2.81388246 176.75142529 1.05920515 179.51942778 4 185 C8.1878844 180.23272383 11.13645904 174.80588865 14.25 169.3125 C15.08144531 167.86907227 15.08144531 167.86907227 15.9296875 166.39648438 C16.45304687 165.47802734 16.97640625 164.55957031 17.515625 163.61328125 C17.99290039 162.77579346 18.47017578 161.93830566 18.96191406 161.07543945 C20.14911328 159.08864126 20.14911328 159.08864126 20 157 C20.66 156.67 21.32 156.34 22 156 C25.15674404 151.63473349 27.69267248 146.85753163 30 142 C29.154375 141.46375 28.30875 140.9275 27.4375 140.375 C24.20770829 138.24226343 21.37479512 135.77346223 18.515625 133.171875 C17.05560337 131.7961068 17.05560337 131.7961068 15 132 Z M-35.3125 190.5625 C-38.74550996 195.52129217 -38.70319276 200.08009816 -38 206 C-35.99685154 211.12955773 -32.14766454 214.2291906 -27.18359375 216.40625 C-22.19967321 217.76144843 -17.81139907 216.96888787 -13.3125 214.5625 C-8.95470937 209.73359687 -5.04684685 204.857658 -4.9375 198.1875 C-6.82229108 192.53312675 -9.14687306 189.48429626 -14 186 C-21.14618502 182.42690749 -30.21196859 184.91055979 -35.3125 190.5625 Z M-39 226 C-39 226.99 -39 227.98 -39 229 C-37.35 229 -35.7 229 -34 229 C-36.26324284 226.92140082 -36.26324284 226.92140082 -39 226 Z M-48 243 C-48 248.61 -48 254.22 -48 260 C-31.5 260 -15 260 2 260 C2 254.39 2 248.78 2 243 C-14.5 243 -31 243 -48 243 Z M-79 277 C-79 285.91 -79 294.82 -79 304 C-42.37 304 -5.74 304 32 304 C32 294.76 32 285.52 32 276 C17.67505236 275.97745195 3.3501164 275.95908664 -10.97484493 275.94818783 C-17.6257353 275.94295826 -24.27660786 275.93585928 -30.92749023 275.92456055 C-37.34002877 275.91373429 -43.75255504 275.90772372 -50.16510201 275.90512276 C-52.61764278 275.90326803 -55.07018285 275.89964653 -57.52271843 275.89426994 C-60.94476677 275.88706298 -64.36676371 275.88600891 -67.78881836 275.88647461 C-68.81380432 275.88287933 -69.83879028 275.87928406 -70.89483643 275.87557983 C-71.82176804 275.8769545 -72.74869965 275.87832916 -73.70372009 275.87974548 C-74.51397613 275.87882369 -75.32423216 275.8779019 -76.1590414 275.87695217 C-78.01773439 275.79827589 -78.01773439 275.79827589 -79 277 Z " fill="#4470C4" transform="translate(1369,5)"/>
<path d="M0 0 C0.825 0.70125 1.65 1.4025 2.5 2.125 C3.36625 2.74375 4.2325 3.3625 5.125 4 C11.33089082 9.55263916 14.84493138 18.03439198 16.5 26.125 C16.58655742 28.11077938 16.61770115 30.09925351 16.61352539 32.08691406 C16.61344986 33.28785706 16.61337433 34.48880005 16.61329651 35.72613525 C16.60813522 37.01791687 16.60297394 38.30969849 16.59765625 39.640625 C16.59579017 40.98012235 16.59436716 42.31962038 16.59336853 43.65911865 C16.58955835 47.17722472 16.57974091 50.69528921 16.56866455 54.21337891 C16.55841817 57.80630939 16.553864 61.39924661 16.54882812 64.9921875 C16.53811725 72.03647529 16.52105887 79.08073493 16.5 86.125 C17.50905647 86.12047569 17.50905647 86.12047569 18.53849792 86.11585999 C25.59672251 86.09112769 32.65360311 86.11568235 39.71166992 86.16772461 C42.33891615 86.18079228 44.96625448 86.18166532 47.59350586 86.16967773 C77.41175876 86.05078969 77.41175876 86.05078969 89.5 97.8125 C100.829248 112.35869496 103.68182652 134.7002531 108.04296875 152.3046875 C108.36733665 153.61384377 108.36733665 153.61384377 108.69825745 154.94944763 C109.59176013 158.56029553 110.48382321 162.17148669 111.37182617 165.78369141 C112.02993656 168.45813498 112.6923635 171.1314787 113.35546875 173.8046875 C113.55649704 174.62742157 113.75752533 175.45015564 113.96464539 176.29782104 C114.62593522 180.01367859 114.62593522 180.01367859 116.5 183.125 C118.48542419 194.42887498 119.61357709 205.92622755 113.13671875 215.890625 C112.59660156 216.62796875 112.05648437 217.3653125 111.5 218.125 C111.09394531 218.73859375 110.68789063 219.3521875 110.26953125 219.984375 C106.47539065 225.21588627 100.68504224 227.82353821 94.5 229.125 C85.80779482 229.82037641 78.01549276 227.3767178 71.3125 221.8359375 C64.33245299 215.24701381 61.9080183 208.31234908 59.5 199.125 C58.97975464 197.20817365 58.45895908 195.29149652 57.9375 193.375 C57.72996094 192.57578125 57.52242187 191.7765625 57.30859375 190.953125 C56.65956253 188.68308344 55.94176738 186.48347897 55.171875 184.25390625 C53.13191979 178.19509452 51.49951313 172.02366553 49.85571289 165.84838867 C49.308564 163.79774839 48.7530972 161.74947348 48.19726562 159.70117188 C47.8458487 158.38815601 47.49491946 157.07500951 47.14453125 155.76171875 C46.82846924 154.58311279 46.51240723 153.40450684 46.18676758 152.19018555 C45.5 149.125 45.5 149.125 45.5 145.125 C41.87 145.125 38.24 145.125 34.5 145.125 C34.603125 146.713125 34.70625 148.30125 34.8125 149.9375 C34.69889436 169.25045822 26.00623817 187.05634731 12.80078125 200.8515625 C12.04152344 201.60179687 11.28226563 202.35203125 10.5 203.125 C9.99509033 203.6627002 9.49018066 204.20040039 8.9699707 204.75439453 C4.73152658 209.19167626 0.30587357 212.57772173 -4.9375 215.75 C-6.10188599 216.45938721 -6.10188599 216.45938721 -7.28979492 217.18310547 C-25.51794608 227.87246479 -49.15845254 230.54335398 -69.70776367 225.84350586 C-72.68039976 225.04618393 -75.59229748 224.13276274 -78.5 223.125 C-79.40363281 222.81691406 -80.30726563 222.50882813 -81.23828125 222.19140625 C-83.01066066 221.55163545 -84.76063416 220.84973577 -86.5 220.125 C-86.5 219.465 -86.5 218.805 -86.5 218.125 C-87.28375 217.939375 -88.0675 217.75375 -88.875 217.5625 C-104.98684472 211.1733202 -118.43172135 195.93868775 -125.375 180.3125 C-128.29069297 173.45593499 -130.16824902 166.42211718 -131.7734375 159.16015625 C-132.1870701 156.26357655 -132.1870701 156.26357655 -133.5 155.125 C-133.75389068 151.4028346 -133.6852354 147.66728963 -133.6875 143.9375 C-133.69974609 142.89529297 -133.71199219 141.85308594 -133.72460938 140.77929688 C-133.73478445 135.44416715 -133.53483483 131.12407519 -131.5 126.125 C-131.12569908 124.82320969 -130.76756062 123.51671084 -130.421875 122.20703125 C-126.62057512 108.21785647 -120.983046 98.19430097 -111.5 87.125 C-110.52353516 85.84882813 -110.52353516 85.84882813 -109.52734375 84.546875 C-106.14789514 80.50976876 -102.15142072 77.57273837 -97.5 75.125 C-93.19407265 74.91323308 -91.28980548 75.68808633 -87.5625 77.75 C-85.5 80.125 -85.5 80.125 -84.9375 83.5625 C-85.84068145 89.28264919 -89.00749936 91.72975832 -93.25 95.3125 C-101.29339267 102.24749219 -106.83872936 110.16745333 -110.5 120.125 C-110.97953125 121.38957031 -110.97953125 121.38957031 -111.46875 122.6796875 C-116.77630694 139.63438328 -114.73902983 160.15441717 -106.8125 175.875 C-97.6082377 191.37691545 -84.12257412 202.17096054 -66.69140625 207.23046875 C-52.90574754 210.23593989 -41.07229767 208.99406183 -27.5 206.125 C-26.53964844 205.96902344 -25.57929688 205.81304687 -24.58984375 205.65234375 C-23.90019531 205.47832031 -23.21054687 205.30429687 -22.5 205.125 C-22.17 204.465 -21.84 203.805 -21.5 203.125 C-19.71209322 202.06168147 -17.89376154 201.0492817 -16.0625 200.0625 C-0.9442493 191.32114178 9.32957561 177.83111916 14.5 161.125 C19.20148021 140.31476392 14.98888867 122.42965915 3.92578125 104.5859375 C-3.18310989 94.49715501 -14.15280306 87.50723646 -24.5 81.125 C-24.5093457 82.07753662 -24.51869141 83.03007324 -24.52832031 84.01147461 C-24.56854203 87.58468419 -24.63438469 91.15706152 -24.70751953 94.72973633 C-24.73554442 96.26868912 -24.75684986 97.8077809 -24.77099609 99.34692383 C-24.90372559 112.97824317 -27.30156355 121.76115079 -36.5 132.125 C-42.66676973 137.9909517 -49.09779994 138.52455604 -57.3046875 138.375 C-64.30642539 137.82718677 -68.86160801 135.51556366 -73.5 130.125 C-74.345625 129.279375 -75.19125 128.43375 -76.0625 127.5625 C-86.52570543 114.78880757 -83.78429021 93.87718668 -83.85009766 78.54589844 C-83.86341749 75.77212412 -83.89125554 72.99908881 -83.93212891 70.22558594 C-83.99144869 66.19714372 -84.00881501 62.16948176 -84.0234375 58.140625 C-84.04610687 56.9152301 -84.06877625 55.68983521 -84.09213257 54.42730713 C-84.0648871 43.19928439 -81.04542497 33.93156644 -73.19140625 25.73828125 C-64.16101695 17.125 -64.16101695 17.125 -58.5 17.125 C-58.5 16.465 -58.5 15.805 -58.5 15.125 C-57.76885986 14.78243164 -57.03771973 14.43986328 -56.28442383 14.08691406 C-52.95715003 12.52318777 -49.63482381 10.94921404 -46.3125 9.375 C-45.16201172 8.83617188 -44.01152344 8.29734375 -42.82617188 7.7421875 C-41.71435547 7.21367188 -40.60253906 6.68515625 -39.45703125 6.140625 C-38.43585205 5.65883789 -37.41467285 5.17705078 -36.36254883 4.68066406 C-33.43956153 3.09215446 -31.06604957 1.22973422 -28.5 -0.875 C-19.14149652 -4.81107646 -9.01251195 -4.8281314 0 0 Z M-23.08984375 14.81640625 C-27.93576465 18.64356312 -33.21310571 21.02476683 -38.8125 23.5625 C-55.26398509 30.29355629 -55.26398509 30.29355629 -66.32954407 43.21490479 C-68.35655714 49.59993736 -68.94119628 55.36309105 -68.8984375 62.0390625 C-68.90130768 63.0523764 -68.90417786 64.06569031 -68.90713501 65.10971069 C-68.9091643 67.24257978 -68.90371448 69.37546796 -68.89111328 71.50830078 C-68.87514506 74.72081682 -68.89094936 77.93205545 -68.91015625 81.14453125 C-69.65648285 102.69731511 -69.65648285 102.69731511 -60.5 121.125 C-57.58258865 122.84552464 -55.94506969 123.13446957 -52.5625 123.0625 C-48.70199028 121.88071131 -46.01814765 120.24654665 -43.5 117.125 C-40.30682567 110.64777839 -40.16239922 104.32978348 -40.375 97.25 C-40.40678663 95.14459364 -40.43393917 93.03911342 -40.45703125 90.93359375 C-40.46943848 89.8338623 -40.4818457 88.73413086 -40.49462891 87.60107422 C-40.50405607 81.49998548 -40.28937719 75.40869823 -40.0625 69.3125 C-40.02302246 68.14412598 -39.98354492 66.97575195 -39.94287109 65.77197266 C-39.9011377 64.68577637 -39.8594043 63.59958008 -39.81640625 62.48046875 C-39.77974854 61.51778076 -39.74309082 60.55509277 -39.70532227 59.56323242 C-39.5 57.125 -39.5 57.125 -38.5 54.125 C-31.17942584 53.63696172 -31.17942584 53.63696172 -28.28125 55.71875 C-25.96421465 58.84878022 -25.90446378 61.01340538 -25.75 64.875 C-25.69328125 66.04546875 -25.6365625 67.2159375 -25.578125 68.421875 C-25.55234375 69.31390625 -25.5265625 70.2059375 -25.5 71.125 C-24.84 70.795 -24.18 70.465 -23.5 70.125 C-23.5 69.465 -23.5 68.805 -23.5 68.125 C-16.82244459 66.38302902 -12.63781234 68.35654618 -6.5 71.125 C-5.51 71.455 -4.52 71.785 -3.5 72.125 C-3.17 72.785 -2.84 73.445 -2.5 74.125 C-1.015 75.115 -1.015 75.115 0.5 76.125 C0.57625818 69.13247691 0.62868729 62.14006165 0.66479492 55.1472168 C0.67985252 52.76989738 0.70030289 50.39260561 0.72631836 48.01538086 C0.76283403 44.59221561 0.77975709 41.16941868 0.79296875 37.74609375 C0.80845261 36.68853378 0.82393646 35.63097382 0.83988953 34.54136658 C0.84178018 26.19328244 -0.59207633 20.39097965 -6.5 14.125 C-12.06439069 10.82369483 -18.06795332 10.50926251 -23.08984375 14.81640625 Z M23.5 102.125 C24.82 105.095 26.14 108.065 27.5 111.125 C28.16 111.125 28.82 111.125 29.5 111.125 C29.62117187 111.74246094 29.74234375 112.35992187 29.8671875 112.99609375 C30.03476562 113.84300781 30.20234375 114.68992187 30.375 115.5625 C30.53742188 116.38621094 30.69984375 117.20992187 30.8671875 118.05859375 C31.69935421 122.09100649 32.5983998 126.1076244 33.5 130.125 C34.12567871 130.10928955 34.75135742 130.0935791 35.39599609 130.07739258 C38.22223931 130.01515325 41.04833861 129.97604538 43.875 129.9375 C44.85984375 129.91236328 45.8446875 129.88722656 46.859375 129.86132812 C48.27089844 129.84682617 48.27089844 129.84682617 49.7109375 129.83203125 C50.58024902 129.8163208 51.44956055 129.80061035 52.34521484 129.78442383 C53.05629395 129.89681396 53.76737305 130.0092041 54.5 130.125 C55.16 131.115 55.82 132.105 56.5 133.125 C57.16 133.125 57.82 133.125 58.5 133.125 C58.58709229 133.7029834 58.67418457 134.2809668 58.76391602 134.87646484 C60.18979982 143.49691371 62.4540607 151.85130722 64.75854492 160.26855469 C65.43763476 162.75049253 66.10899018 165.23442733 66.77929688 167.71875 C67.21569237 169.32564405 67.65252646 170.93241907 68.08984375 172.5390625 C68.28682358 173.26743317 68.48380341 173.99580383 68.68675232 174.74624634 C69.92542244 179.25596859 71.32493797 183.68267084 72.8598175 188.10066223 C73.80178668 191.07928754 74.25491792 194.10738217 74.75 197.1875 C76.07665835 203.74275302 78.36793018 207.83384764 83.5 212.125 C86.99160447 213.87080224 90.69045358 213.69483131 94.5 213.125 C97.80155306 211.44989624 99.90298461 209.07479721 101.875 205.9375 C103.16526523 200.13130647 103.03466563 193.8799961 101.5 188.125 C100.84 188.125 100.18 188.125 99.5 188.125 C99.38446777 186.85011719 99.26893555 185.57523437 99.14990234 184.26171875 C98.56521101 179.02872495 97.39917512 174.03383095 96.1015625 168.9375 C95.86593597 167.99495361 95.63030945 167.05240723 95.38754272 166.08129883 C94.89105859 164.10069223 94.39171734 162.12079984 93.88964844 160.14160156 C93.1275901 157.13521815 92.37559648 154.12645063 91.625 151.1171875 C91.13861499 149.18214223 90.65165487 147.2472414 90.1640625 145.3125 C89.83107651 143.98085815 89.83107651 143.98085815 89.49136353 142.62231445 C88.24181441 137.71583868 86.8312269 132.91180566 85.18084717 128.12469482 C84.50553066 126.14124391 83.89015529 124.14768682 83.2890625 122.140625 C82.90492188 120.89796875 82.52078125 119.6553125 82.125 118.375 C81.55652344 116.49554688 81.55652344 116.49554688 80.9765625 114.578125 C79.09802735 110.18493697 76.5221262 107.58929829 72.6875 104.8125 C69.27467976 103.73989935 66.06579746 104.00614008 62.5 104.125 C62.5 103.465 62.5 102.805 62.5 102.125 C49.63 102.125 36.76 102.125 23.5 102.125 Z " fill="#9FC4FE" transform="translate(518.5,98.875)"/>
<path d="M0 0 C6.27 0 12.54 0 19 0 C22.15793824 3.78952589 23.51190827 5.67476666 25.15869141 9.99169922 C26.83192718 13.98590627 29.1068132 17.68147821 31.25 21.4375 C32.09040996 22.95599875 32.92904001 24.47548436 33.765625 25.99609375 C35.06110796 28.34265974 36.38755503 30.62767065 37.796875 32.91015625 C39 35 39 35 39 37 C39.66 37 40.32 37 41 37 C41.29132813 37.56807373 41.58265625 38.13614746 41.8828125 38.72143555 C46.96630626 48.60567371 52.06746432 58.35958959 58.02734375 67.74609375 C60.82293617 72.35743729 63.30376407 77.12006127 65.76806641 81.91503906 C67.90373085 86.04418779 70.20934144 89.9870582 72.70385742 93.90893555 C75.04873967 97.69192979 77.16905505 101.60051792 79.3125 105.5 C79.76689453 106.32242188 80.22128906 107.14484375 80.68945312 107.9921875 C81.79494628 109.99371195 82.89842384 111.99631795 84 114 C84.66 114 85.32 114 86 114 C90.95 104.595 90.95 104.595 96 95 C96.66 95 97.32 95 98 95 C98.226875 94.19046875 98.45375 93.3809375 98.6875 92.546875 C100.32564611 88.11998016 102.58698957 84.29351249 105 80.25 C105.99880908 78.5529143 106.99617159 76.85497651 107.9921875 75.15625 C108.49588867 74.29773438 108.99958984 73.43921875 109.51855469 72.5546875 C111.78117866 68.65289165 113.95376924 64.70314922 116.125 60.75 C119.48957949 54.64146596 122.98420575 48.63590146 126.6081543 42.67822266 C129.94892859 37.1558825 133.06911261 31.52166731 136.17944336 25.8671875 C140.0097986 18.92602432 144.01991038 12.09804553 148.06640625 5.28125 C149.08878385 3.54630619 150.09941286 1.80117428 151 0 C157.27 0 163.54 0 170 0 C170 57.09 170 114.18 170 173 C163.73 173 157.46 173 151 173 C150.67 128.45 150.34 83.9 150 38 C146.535 44.435 146.535 44.435 143 51 C141.30881002 53.90933697 139.60920199 56.80476643 137.875 59.6875 C134.31268339 65.66946515 130.94780976 71.68548121 128 78 C127.34 78 126.68 78 126 78 C125.77570313 78.79664063 125.55140625 79.59328125 125.3203125 80.4140625 C123.62416353 85.02076296 121.29929908 89.11719741 118.875 93.375 C118.40707031 94.20644531 117.93914062 95.03789062 117.45703125 95.89453125 C116.30929451 97.93234954 115.15686718 99.96735569 114 102 C113.34 102 112.68 102 112 102 C111.76796875 102.80953125 111.5359375 103.6190625 111.296875 104.453125 C109.69688055 108.82901345 107.54617274 112.70658265 105.25 116.75 C104.80261475 117.54623779 104.35522949 118.34247559 103.89428711 119.1628418 C100.69454801 124.83565839 97.40699547 130.44903853 94 136 C93.57976562 136.90492188 93.15953125 137.80984375 92.7265625 138.7421875 C91 141 91 141 88.08203125 141.48828125 C87.00308594 141.43027344 85.92414063 141.37226563 84.8125 141.3125 C83.72582031 141.26738281 82.63914062 141.22226562 81.51953125 141.17578125 C80.27236328 141.08876953 80.27236328 141.08876953 79 141 C77.3264663 138.04550087 75.66236015 135.0857982 74 132.125 C73.28457031 130.86236328 73.28457031 130.86236328 72.5546875 129.57421875 C72.10351562 128.76855469 71.65234375 127.96289062 71.1875 127.1328125 C70.76855469 126.38918457 70.34960938 125.64555664 69.91796875 124.87939453 C69 123 69 123 69 121 C68.34 121 67.68 121 67 121 C66.63237549 120.31486328 66.26475098 119.62972656 65.88598633 118.92382812 C64.19761504 115.78104368 62.50509087 112.6405138 60.8125 109.5 C60.23435547 108.42234375 59.65621094 107.3446875 59.06054688 106.234375 C56.24495427 101.01677966 53.37596373 95.89019279 50.18188477 90.89550781 C47.99544141 87.38888807 46.04534009 83.74927942 44.0625 80.125 C40.99521627 74.55888667 37.87691256 69.04858418 34.5625 63.625 C32.06420742 59.42786847 29.70032588 55.15484623 27.33374023 50.88232422 C24.69324242 46.14187495 21.88537718 41.61660349 19 37 C18.67 81.88 18.34 126.76 18 173 C12.06 173 6.12 173 0 173 C0 115.91 0 58.82 0 0 Z " fill="#4470C4" transform="translate(1075,152)"/>
<path d="M0 0 C82 0 82 0 95 4 C95 4.66 95 5.32 95 6 C96.0828125 6.38285156 96.0828125 6.38285156 97.1875 6.7734375 C104.40057594 9.91914006 110.2739223 15.31955778 113.96484375 22.23828125 C114.9146555 24.05538308 114.9146555 24.05538308 116.46484375 25.328125 C118.68215002 27.74290129 119.49253453 30.37706416 120.625 33.4375 C121.05039062 34.57058594 121.47578125 35.70367187 121.9140625 36.87109375 C126.81759705 50.99962315 125.06700946 67.51268825 119 81 C116.93742641 84.60363086 114.63255795 87.79674767 112 91 C111.236875 92.0725 110.47375 93.145 109.6875 94.25 C103.67173088 100.40567073 95.78559869 103.62283144 88 107 C96.20420316 121.02017981 96.20420316 121.02017981 105.265625 134.48828125 C107.62846851 137.91014696 109.78764976 141.44149715 111.9375 145 C112.3399292 145.66040283 112.7423584 146.32080566 113.15698242 147.0012207 C116 151.7561041 116 151.7561041 116 154 C116.66 154 117.32 154 118 154 C119.14501953 155.52880859 119.14501953 155.52880859 120.3828125 157.6484375 C120.82753906 158.40640625 121.27226562 159.164375 121.73046875 159.9453125 C122.42076172 161.14800781 122.42076172 161.14800781 123.125 162.375 C123.59292969 163.1690625 124.06085938 163.963125 124.54296875 164.78125 C128 170.7277469 128 170.7277469 128 173 C109.0752613 174.63883295 109.0752613 174.63883295 104.26953125 170.84375 C102.39198145 167.6171459 101 164.77732744 101 161 C100.34 161 99.68 161 99 161 C98.50371094 160.10539063 98.00742187 159.21078125 97.49609375 158.2890625 C92.93865615 150.13487172 92.93865615 150.13487172 87.75 142.375 C83.50502491 136.52222834 79.91457057 130.27506026 76.26269531 124.04248047 C73.73683011 119.761395 71.13538197 115.86871714 68 112 C68 111.34 68 110.68 68 110 C51.5 110 35 110 18 110 C18 130.79 18 151.58 18 173 C12.06 173 6.12 173 0 173 C0 115.91 0 58.82 0 0 Z M18 16 C18 41.41 18 66.82 18 93 C33.3140625 92.87625 33.3140625 92.87625 48.9375 92.75 C52.14460693 92.73420898 55.35171387 92.71841797 58.65600586 92.70214844 C61.2173033 92.67276543 63.77858475 92.64193729 66.33984375 92.609375 C67.65408325 92.60824707 68.96832275 92.60711914 70.3223877 92.60595703 C79.58877383 92.46225137 87.45961681 91.11367182 94.52734375 84.65625 C102.61331552 75.56221278 106.67639056 64.7713991 106.30078125 52.59375 C105.65531822 47.0276792 104.51988423 41.03976847 102 36 C101.34 36 100.68 36 100 36 C99.814375 35.34 99.62875 34.68 99.4375 34 C97.39191226 29.73094732 94.42815357 26.25836294 91 23 C90.34 23 89.68 23 89 23 C88.505 22.01 88.505 22.01 88 21 C86.36418802 19.90342294 86.36418802 19.90342294 84.375 18.9375 C83.39660156 18.42509766 83.39660156 18.42509766 82.3984375 17.90234375 C75.3783482 15.26123524 67.66215758 15.86957543 60.28515625 15.90234375 C59.21100464 15.90335083 58.13685303 15.90435791 57.03015137 15.90539551 C53.04092329 15.91060356 49.0517105 15.92456474 45.0625 15.9375 C36.131875 15.958125 27.20125 15.97875 18 16 Z " fill="#04275A" transform="translate(256,152)"/>
<path d="M0 0 C37.95 0 75.9 0 115 0 C115 5.28 115 10.56 115 16 C82.99 16 50.98 16 18 16 C18.33 35.8 18.66 55.6 19 76 C24.97996094 75.98839844 30.95992187 75.97679687 37.12109375 75.96484375 C40.89908962 75.95973701 44.67708126 75.95492324 48.45507812 75.95117188 C54.45777261 75.94518336 60.46045191 75.93808285 66.46313477 75.92456055 C71.30009694 75.9137319 76.13704284 75.90772321 80.97401619 75.90512276 C82.82368285 75.90326847 84.67334857 75.89964778 86.52300835 75.89426994 C89.10447014 75.8870598 91.68586382 75.88600905 94.26733398 75.88647461 C95.03985001 75.88287933 95.81236603 75.87928406 96.60829163 75.87557983 C101.88594784 75.88594784 101.88594784 75.88594784 103 77 C103 81.95 103 86.9 103 92 C74.95 92 46.9 92 18 92 C18 113.12 18 134.24 18 156 C50.67 156 83.34 156 117 156 C117 161.61 117 167.22 117 173 C78.39 173 39.78 173 0 173 C0 115.91 0 58.82 0 0 Z " fill="#042759" transform="translate(928,152)"/>
<path d="M0 0 C5.94 0 11.88 0 18 0 C18.33 32.01 18.66 64.02 19 97 C21.31 94.36 23.62 91.72 26 89 C26.66 89 27.32 89 28 89 C28 88.34 28 87.68 28 87 C28.66 87 29.32 87 30 87 C30.20238281 86.46890625 30.40476562 85.9378125 30.61328125 85.390625 C32.60453012 81.95782413 35.34466874 79.49103174 38.1875 76.75 C42.40022199 72.62000431 46.44295516 68.45805534 50.26171875 63.95703125 C53.21481578 60.63230853 56.42755509 57.56553758 59.58984375 54.44140625 C62.26854532 51.72797273 64.74608118 48.89222977 67.22265625 45.99609375 C69.95099285 42.93196187 72.89667908 40.09518168 75.81640625 37.21484375 C77.77974671 35.22340539 79.62079669 33.18697422 81.4375 31.0625 C85.68854489 26.10790222 90.35323186 21.57953194 95 17 C98.35324877 13.68853627 101.59402386 10.31266817 104.75 6.8125 C105.52859375 5.95269531 106.3071875 5.09289062 107.109375 4.20703125 C109.02584478 2.15018771 109.02584478 2.15018771 110 0 C116.93 0 123.86 0 131 0 C129.32333091 3.35333817 128.18945006 5.08333795 125.69140625 7.6875 C125.03164795 8.38077393 124.37188965 9.07404785 123.69213867 9.78833008 C122.98935791 10.51818115 122.28657715 11.24803223 121.5625 12 C120.11141482 13.52420251 118.66089688 15.04894524 117.2109375 16.57421875 C116.49647461 17.32364746 115.78201172 18.07307617 115.04589844 18.84521484 C112.23190168 21.80897802 109.45140427 24.80205028 106.6875 27.8125 C105.84574219 28.72644531 105.00398438 29.64039063 104.13671875 30.58203125 C101.99783301 32.9203573 101.99783301 32.9203573 100.33203125 35.32421875 C99.89246094 35.87722656 99.45289063 36.43023437 99 37 C98.34 37 97.68 37 97 37 C96.73574219 37.59296875 96.47148437 38.1859375 96.19921875 38.796875 C94.95629575 41.08029054 93.69598354 42.47426723 91.8125 44.25 C89.2425351 46.74015232 86.83113126 49.28473198 84.5 52 C81.72123555 55.2253516 78.79774605 58.22558422 75.76171875 61.20703125 C73.24574239 63.7676369 70.9213919 66.48124025 68.578125 69.19921875 C66.80350185 71.2242219 64.94223065 73.13545857 63 75 C64.30642006 78.69290026 65.85802491 81.32292832 68.375 84.3125 C72.00087048 88.72660319 75.46371462 93.23257884 78.875 97.8125 C85.27636693 106.39002903 91.77652099 114.88552681 98.375 123.3125 C101.49469673 127.31211119 104.52849843 131.37286993 107.5625 135.4375 C113.17255819 142.9479844 118.90553705 150.35824617 124.67578125 157.74609375 C125.21283691 158.43558105 125.74989258 159.12506836 126.30322266 159.83544922 C127.51829278 161.38549407 128.74306227 162.92795484 129.97412109 164.46533203 C130.61559082 165.27212402 131.25706055 166.07891602 131.91796875 166.91015625 C132.50731201 167.64500244 133.09665527 168.37984863 133.70385742 169.13696289 C135 171 135 171 135 173 C117.41780802 174.29408915 117.41780802 174.29408915 112.39453125 171.60546875 C110.5984842 169.51079155 109.32601901 167.41893381 108 165 C106.70503044 163.19562212 105.39143654 161.40450931 104.0625 159.625 C103.39476562 158.69042969 102.72703125 157.75585938 102.0390625 156.79296875 C100.07768325 154.10640522 98.03585338 151.51790754 95.9375 148.9375 C93.31844661 145.70580254 90.8576904 142.42693774 88.5 139 C85.54302275 134.70502399 82.3650834 130.65435716 79.08203125 126.60546875 C76.15574013 122.94348718 73.36856318 119.1831082 70.56640625 115.42578125 C67.48747162 111.30531522 64.37058591 107.21396764 61.25 103.125 C60.43559448 102.05463501 60.43559448 102.05463501 59.60473633 100.96264648 C56.49432859 96.8917349 53.3099055 92.91059206 50 89 C45.1697647 92.93158687 40.72000113 97.1698327 36.3125 101.5625 C35.75409424 102.11639404 35.19568848 102.67028809 34.62036133 103.2409668 C31.52103138 106.35142373 28.73208839 109.55624179 26 113 C24.34106818 114.34294481 22.67523395 115.67744688 21 117 C18.80097174 120.29854238 18.73590207 121.36420456 18.68115234 125.20581055 C18.66128265 126.26668381 18.64141296 127.32755707 18.62094116 128.420578 C18.60938995 129.56440445 18.59783875 130.7082309 18.5859375 131.88671875 C18.56657135 133.05886429 18.5472052 134.23100983 18.5272522 135.43867493 C18.46739803 139.1882089 18.42104717 142.93777348 18.375 146.6875 C18.33682564 149.22722705 18.29777424 151.76694107 18.2578125 154.30664062 C18.1616915 160.53765486 18.07768168 166.7687297 18 173 C12.06 173 6.12 173 0 173 C0 115.91 0 58.82 0 0 Z " fill="#4572C3" transform="translate(40,152)"/>
<path d="M0 0 C1.39025391 0.51820313 1.39025391 0.51820313 2.80859375 1.046875 C7.73787282 3.20037564 10.80207202 5.36055754 14.1328125 9.6015625 C15.7048987 11.41418647 17.39817406 12.85040435 19.25 14.375 C27.38374866 21.34019498 35.02044676 30.51966643 39.5625 40.25 C39.5625 41.24 39.5625 42.23 39.5625 43.25 C40.2225 43.25 40.8825 43.25 41.5625 43.25 C45.34093442 53.86476459 46.29771781 63.81331617 46.50683594 75.02783203 C46.55280184 76.8628393 46.66247093 78.69613128 46.7890625 80.52734375 C47.78350285 99.18618504 38.96632051 117.17150342 26.875 130.875 C25.45901033 132.35422805 24.01908369 133.81072715 22.5625 135.25 C22.05759033 135.7877002 21.55268066 136.32540039 21.0324707 136.87939453 C16.79402658 141.31667626 12.36837357 144.70272173 7.125 147.875 C5.96061401 148.58438721 5.96061401 148.58438721 4.77270508 149.30810547 C-13.45544608 159.99746479 -37.09595254 162.66835398 -57.64526367 157.96850586 C-60.61789976 157.17118393 -63.52979748 156.25776274 -66.4375 155.25 C-67.34113281 154.94191406 -68.24476563 154.63382813 -69.17578125 154.31640625 C-70.94816066 153.67663545 -72.69813416 152.97473577 -74.4375 152.25 C-74.4375 151.59 -74.4375 150.93 -74.4375 150.25 C-75.22125 150.064375 -76.005 149.87875 -76.8125 149.6875 C-92.92434472 143.2983202 -106.36922135 128.06368775 -113.3125 112.4375 C-116.22819297 105.58093499 -118.10574902 98.54711718 -119.7109375 91.28515625 C-120.1245701 88.38857655 -120.1245701 88.38857655 -121.4375 87.25 C-121.69139068 83.5278346 -121.6227354 79.79228963 -121.625 76.0625 C-121.63724609 75.02029297 -121.64949219 73.97808594 -121.66210938 72.90429688 C-121.67228445 67.56916715 -121.47233483 63.24907519 -119.4375 58.25 C-119.06319908 56.94820969 -118.70506062 55.64171084 -118.359375 54.33203125 C-114.55807512 40.34285647 -108.920546 30.31930097 -99.4375 19.25 C-98.78652344 18.39921875 -98.13554687 17.5484375 -97.46484375 16.671875 C-94.08539514 12.63476876 -90.08892072 9.69773837 -85.4375 7.25 C-81.13157265 7.03823308 -79.22730548 7.81308633 -75.5 9.875 C-73.4375 12.25 -73.4375 12.25 -72.875 15.6875 C-73.77818145 21.40764919 -76.94499936 23.85475832 -81.1875 27.4375 C-89.23089267 34.37249219 -94.77622936 42.29245333 -98.4375 52.25 C-98.91703125 53.51457031 -98.91703125 53.51457031 -99.40625 54.8046875 C-104.71380694 71.75938328 -102.67652983 92.27941717 -94.75 108 C-85.5457377 123.50191545 -72.06007412 134.29596054 -54.62890625 139.35546875 C-40.84324754 142.36093989 -29.00979767 141.11906183 -15.4375 138.25 C-14.47714844 138.09402344 -13.51679688 137.93804687 -12.52734375 137.77734375 C-11.83769531 137.60332031 -11.14804687 137.42929687 -10.4375 137.25 C-10.1075 136.59 -9.7775 135.93 -9.4375 135.25 C-7.64959322 134.18668147 -5.83126154 133.1742817 -4 132.1875 C11.1182507 123.44614178 21.39207561 109.95611916 26.5625 93.25 C31.26398021 72.43976392 27.05138867 54.55465915 15.98828125 36.7109375 C9.30672509 27.22861944 -0.97869452 20.13579578 -10.87109375 14.328125 C-12.4375 13.25 -12.4375 13.25 -13.4375 11.25 C-14.01751036 4.05787157 -14.01751036 4.05787157 -11.6875 0.8125 C-7.35873702 -2.1935854 -4.85569642 -1.85876867 0 0 Z " fill="#042858" transform="translate(506.4375,166.75)"/>
<path d="M0 0 C1.81242052 -0.02687279 3.62495233 -0.04633715 5.4375 -0.0625 C6.44683594 -0.07410156 7.45617187 -0.08570313 8.49609375 -0.09765625 C11 0 11 0 12 1 C12.09558036 2.44213999 12.12188394 3.88894079 12.12025452 5.33424377 C12.12231651 6.73726242 12.12231651 6.73726242 12.12442017 8.16862488 C12.11902725 9.72012993 12.11902725 9.72012993 12.11352539 11.30297852 C12.11367142 12.38577087 12.11381744 13.46856323 12.1139679 14.58416748 C12.11326823 18.18243374 12.10547333 21.78064897 12.09765625 25.37890625 C12.09579226 27.86612418 12.09436827 30.35334248 12.09336853 32.84056091 C12.0899335 38.73021191 12.08204277 44.6198439 12.07201904 50.50948709 C12.05976246 57.87025374 12.05437791 65.23102264 12.04882812 72.59179688 C12.03808815 85.72787426 12.02100993 98.86393531 12 112 C18.6 112.33 25.2 112.66 32 113 C32 117.62 32 122.24 32 127 C25.4 127 18.8 127 12 127 C12.01160156 129.20558594 12.02320313 131.41117188 12.03515625 133.68359375 C12.04298176 135.84822445 12.04903859 138.01285351 12.05493164 140.17749023 C12.05992328 141.66805745 12.06671894 143.15861986 12.07543945 144.64916992 C12.12015168 152.49484991 12.1148321 160.21373172 11 168 C6.38 168 1.76 168 -3 168 C-3 154.47 -3 140.94 -3 127 C-31.05 127 -59.1 127 -88 127 C-88 113.55384615 -88 113.55384615 -83.625 109.125 C-82.69706717 108.13333506 -81.77405063 107.1370517 -80.85546875 106.13671875 C-80.38028809 105.62931152 -79.90510742 105.1219043 -79.41552734 104.59912109 C-77.0134448 101.8854887 -74.99352659 98.91659095 -72.9375 95.9375 C-69.18591284 90.57095228 -65.20765446 85.47623884 -61.015625 80.44140625 C-58.2166109 77.05112755 -55.60701135 73.53854891 -53 70 C-47.79523843 62.9884573 -42.50234716 56.06562215 -37.08935547 49.21459961 C-33.39233362 44.52520567 -29.79924541 39.764408 -26.23046875 34.9765625 C-22.68252977 30.24183482 -19.05963245 25.56487501 -15.44775391 20.87890625 C-12.60749107 17.19279111 -9.77065522 13.50408103 -6.9375 9.8125 C-6.07850098 8.69742065 -6.07850098 8.69742065 -5.20214844 7.55981445 C-4.40405762 6.51893677 -4.40405762 6.51893677 -3.58984375 5.45703125 C-3.11409912 4.83803955 -2.63835449 4.21904785 -2.14819336 3.58129883 C-0.92668783 1.9897481 -0.92668783 1.9897481 0 0 Z M-4 23 C-5.52199363 24.85099023 -6.98857784 26.71770931 -8.4375 28.625 C-8.88633545 29.2118457 -9.3351709 29.79869141 -9.79760742 30.40332031 C-13.31280716 35.02803375 -16.688748 39.74233768 -20.0390625 44.48706055 C-23.92745063 49.96335717 -28.00783729 55.28327589 -32.10595703 60.60351562 C-36.16640416 65.88364988 -40.12544318 71.22913098 -44.04443359 76.61474609 C-46.98731151 80.64845362 -49.99814711 84.62047516 -53.0625 88.5625 C-57.4855852 94.2715301 -61.70335103 100.10670963 -65.87109375 106.00390625 C-67.54597006 108.36102575 -69.26505323 110.68673764 -71 113 C-48.56 113 -26.12 113 -3 113 C-3 83.3 -3 53.6 -3 23 C-3.33 23 -3.66 23 -4 23 Z " fill="#A9CBFE" transform="translate(730,183)"/>
<path d="M0 0 C5.94 0 11.88 0 18 0 C18 51.48 18 102.96 18 156 C51 156 84 156 118 156 C118 161.61 118 167.22 118 173 C79.06 173 40.12 173 0 173 C0 115.91 0 58.82 0 0 Z " fill="#042859" transform="translate(787,152)"/>
<path d="M0 0 C6.27 0 12.54 0 19 0 C19 57.09 19 114.18 19 173 C12.73 173 6.46 173 0 173 C0 115.91 0 58.82 0 0 Z " fill="#4571C3" transform="translate(195,152)"/>
<path d="M0 0 C4.56255547 3.69389888 9.05355638 7.74998509 10.11328125 13.7109375 C10.77328125 13.7109375 11.43328125 13.7109375 12.11328125 13.7109375 C16.17870772 23.02753983 16.8573833 34.71429764 14.11328125 44.5859375 C9.41433456 55.83295342 0.55409295 64.71152716 -10.671875 69.40625 C-15.07817454 70.96826603 -19.18207883 71.16913352 -23.82421875 71.0859375 C-24.61038574 71.08013672 -25.39655273 71.07433594 -26.20654297 71.06835938 C-31.93298736 70.94018197 -36.61330769 70.05467575 -41.88671875 67.7109375 C-41.88671875 67.0509375 -41.88671875 66.3909375 -41.88671875 65.7109375 C-42.93859375 65.3396875 -42.93859375 65.3396875 -44.01171875 64.9609375 C-51.41306722 61.7429599 -54.95378598 57.54348558 -58.88671875 50.7109375 C-59.37785156 49.89625 -59.86898438 49.0815625 -60.375 48.2421875 C-64.97058108 39.64650908 -65.38203168 30.2287427 -63.22265625 20.81640625 C-58.32560841 7.2962959 -48.61221463 -1.28511614 -35.88671875 -7.2890625 C-23.22080048 -11.58351548 -10.43147041 -7.30017645 0 0 Z M-42.26171875 16.0859375 C-46.95900224 22.18324699 -48.49821694 27.24323125 -47.5234375 34.86328125 C-45.80388006 42.55381731 -42.38579377 48.28603536 -35.88671875 52.7109375 C-30.80869496 55.59617829 -25.27084384 56.22942784 -19.515625 55.34765625 C-12.26937162 53.30062107 -6.52665896 48.64276947 -2.44921875 42.3359375 C0.60663364 35.24635996 0.69385548 29.38819535 -1.80859375 22.07421875 C-4.56844155 16.02455238 -8.62756512 12.07550665 -14.88671875 9.7109375 C-15.87671875 9.7109375 -16.86671875 9.7109375 -17.88671875 9.7109375 C-17.88671875 9.0509375 -17.88671875 8.3909375 -17.88671875 7.7109375 C-28.16303345 6.92847699 -35.13507237 8.34793666 -42.26171875 16.0859375 Z " fill="#9FC4FE" transform="translate(535.88671875,20.2890625)"/>
<path d="" fill="#0000FF" transform="translate(0,0)"/>
<path d="" fill="#0000FF" transform="translate(0,0)"/>
<path d="" fill="#000000" transform="translate(0,0)"/>
<path d="" fill="#000000" transform="translate(0,0)"/>
<path d="" fill="#0000FF" transform="translate(0,0)"/>
<path d="" fill="#000000" transform="translate(0,0)"/>
<path d="" fill="#000000" transform="translate(0,0)"/>
<path d="" fill="#0000FF" transform="translate(0,0)"/>
<path d="" fill="#0000FF" transform="translate(0,0)"/>
<path d="" fill="#000000" transform="translate(0,0)"/>
<path d="" fill="#0000FF" transform="translate(0,0)"/>
<path d="" fill="#0000FF" transform="translate(0,0)"/>
<path d="" fill="#000000" transform="translate(0,0)"/>
<path d="" fill="#0000FF" transform="translate(0,0)"/>
<path d="" fill="#000000" transform="translate(0,0)"/>
<path d="" fill="#0000FF" transform="translate(0,0)"/>
<path d="" fill="#0000FF" transform="translate(0,0)"/>
<path d="" fill="#0000FF" transform="translate(0,0)"/>
<path d="" fill="#0000FF" transform="translate(0,0)"/>
<path d="" fill="#0000FF" transform="translate(0,0)"/>
<path d="" fill="#000000" transform="translate(0,0)"/>
<path d="" fill="#0000FF" transform="translate(0,0)"/>
<path d="" fill="#000000" transform="translate(0,0)"/>
<path d="" fill="#000000" transform="translate(0,0)"/>
<path d="" fill="#0000FF" transform="translate(0,0)"/>
<path d="" fill="#000000" transform="translate(0,0)"/>
<path d="" fill="#000000" transform="translate(0,0)"/>
<path d="" fill="#000000" transform="translate(0,0)"/>
<path d="" fill="#000000" transform="translate(0,0)"/>
<path d="" fill="#000000" transform="translate(0,0)"/>
<path d="" fill="#000000" transform="translate(0,0)"/>
<path d="" fill="#0000FF" transform="translate(0,0)"/>
<path d="" fill="#000000" transform="translate(0,0)"/>
<path d="" fill="#000000" transform="translate(0,0)"/>
<path d="" fill="#000000" transform="translate(0,0)"/>
<path d="" fill="#0000FF" transform="translate(0,0)"/>
<path d="" fill="#000000" transform="translate(0,0)"/>
<path d="" fill="#000000" transform="translate(0,0)"/>
<path d="" fill="#0000FF" transform="translate(0,0)"/>
<path d="" fill="#0000FF" transform="translate(0,0)"/>
<path d="" fill="#000000" transform="translate(0,0)"/>
<path d="" fill="#000000" transform="translate(0,0)"/>
<path d="" fill="#000000" transform="translate(0,0)"/>
<path d="" fill="#0000FF" transform="translate(0,0)"/>
<path d="" fill="#000000" transform="translate(0,0)"/>
<path d="" fill="#00FFFF" transform="translate(0,0)"/>
<path d="" fill="#000000" transform="translate(0,0)"/>
<path d="" fill="#000000" transform="translate(0,0)"/>
<path d="" fill="#0000FF" transform="translate(0,0)"/>
<path d="" fill="#000000" transform="translate(0,0)"/>
<path d="" fill="#000000" transform="translate(0,0)"/>
<path d="" fill="#0000FF" transform="translate(0,0)"/>
<path d="" fill="#00FFFF" transform="translate(0,0)"/>
<path d="" fill="#0000FF" transform="translate(0,0)"/>
<path d="" fill="#000000" transform="translate(0,0)"/>
<path d="" fill="#000000" transform="translate(0,0)"/>
<path d="" fill="#000000" transform="translate(0,0)"/>
<path d="" fill="#000000" transform="translate(0,0)"/>
<path d="" fill="#0000FF" transform="translate(0,0)"/>
<path d="" fill="#000000" transform="translate(0,0)"/>
<path d="" fill="#000000" transform="translate(0,0)"/>
<path d="" fill="#000000" transform="translate(0,0)"/>
<path d="" fill="#000000" transform="translate(0,0)"/>
<path d="" fill="#000000" transform="translate(0,0)"/>
<path d="" fill="#0000FF" transform="translate(0,0)"/>
<path d="" fill="#0000FF" transform="translate(0,0)"/>
<path d="" fill="#0000FF" transform="translate(0,0)"/>
</svg>
